#!OML:ASF F:\VICON\USERDATA\INSTALL\rory3\rory3.ASF
:FULLY-SPECIFIED
:DEGREES
325
root 7.93898 15.7522 -5.75923 -175.522 49.6943 -170.524
lowerback 9.63677 0.369265 4.07012
upperback 0.0419944 1.07345 1.32803
thorax -5.32169 0.463043 -1.05613
lowerneck -11.3079 -8.75744 -12.9113
upperneck 21.3119 -11.3744 9.71092
head 9.95233 -5.20001 4.10683
rclavicle 8.63098e-014 -8.15017e-015
rhumerus -34.1419 2.51861 -85.2452
rradius 35.8191
rwrist 4.02887
rhand -17.6843 13.1594
rfingers 7.12502
rthumb 8.57498 -16.6465
lclavicle 8.63098e-014 -8.15017e-015
lhumerus -35.9256 10.7359 79.8294
lradius 27.9158
lwrist 0.790171
lhand -12.163 12.6251
lfingers 7.12502
lthumb 13.9 42.1406
rfemur 1.69521 4.67139 35.6242
rtibia 22.4912
rfoot -16.4638 -19.0028
rtoes 1.54156
lfemur -27.1177 -6.60424 -13.2277
ltibia 36.2104
lfoot -13.6091 12.5945
ltoes -7.80462
326
root 8.01592 15.7588 -5.82704 -175.429 49.8456 -170.391
lowerback 9.59567 0.38388 4.16836
upperback 0.0810606 1.10261 1.34438
thorax -5.25485 0.4775 -1.09752
lowerneck -11.295 -8.71032 -12.8934
upperneck 21.2985 -11.3121 9.71238
head 9.93583 -5.17024 4.11432
rclavicle -3.08862e-014 -5.76476e-015
rhumerus -34.0508 2.7759 -85.3995
rradius 36.0474
rwrist 3.92339
rhand -17.5499 12.6275
rfingers 7.12502
rthumb 8.70468 -17.173
lclavicle -3.08862e-014 -5.76476e-015
lhumerus -35.9578 10.5283 79.9422
lradius 28.1073
lwrist 1.07958
lhand -12.0107 12.852
lfingers 7.12502
lthumb 14.0467 42.3574
rfemur 2.52302 4.53725 35.6869
rtibia 21.7097
rfoot -16.2545 -18.861
rtoes 1.03975
lfemur -26.935 -7.2227 -12.9035
ltibia 34.2454
lfoot -13.9788 13.3464
ltoes -7.64115
327
root 8.09248 15.7578 -5.89923 -175.304 50.0953 -170.279
lowerback 9.59039 0.441678 4.24519
upperback 0.0282076 1.19136 1.37789
thorax -5.3025 0.518023 -1.11805
lowerneck -11.2305 -8.6855 -12.9254
upperneck 21.3929 -11.2611 9.6416
head 9.94848 -5.15564 4.10556
rclavicle 6.83198e-014 -7.7526e-015
rhumerus -34.0738 3.02122 -85.4913
rradius 36.203
rwrist 3.88398
rhand -17.5325 12.7388
rfingers 7.12502
rthumb 8.72154 -17.061
lclavicle 6.83198e-014 -7.7526e-015
lhumerus -36.1231 10.4729 80.0288
lradius 28.1959
lwrist 1.24128
lhand -11.8818 12.8502
lfingers 7.12502
lthumb 14.1709 42.3469
rfemur 3.26977 4.47903 35.7063
rtibia 21.0586
rfoot -16.1826 -18.6474
rtoes 0.831
lfemur -26.7117 -7.64299 -12.677
ltibia 32.3961
lfoot -14.2175 14.1654
ltoes -9.40213
328
root 8.16855 15.7578 -5.9711 -175.233 50.3052 -170.269
lowerback 9.55317 0.502227 4.26754
upperback -0.0121329 1.27452 1.40123
thorax -5.31996 0.55765 -1.11732
lowerneck -11.2262 -8.70022 -13.0235
upperneck 21.5328 -11.2525 9.58804
head 10 -5.16211 4.10554
rclavicle 6.29402e-014 5.56597e-015
rhumerus -34.0566 3.27996 -85.5491
rradius 36.2587
rwrist 3.78042
rhand -17.539 12.4621
rfingers 7.12502
rthumb 8.71522 -17.338
lclavicle 6.29402e-014 5.56597e-015
lhumerus -36.2568 10.3975 80.1581
lradius 28.2644
lwrist 1.30759
lhand -11.9778 12.5626
lfingers 7.12502
lthumb 14.0784 42.0657
rfemur 3.98317 4.42855 35.6654
rtibia 20.4313
rfoot -15.9867 -18.5515
rtoes -0.0747375
lfemur -26.5934 -8.14865 -12.4906
ltibia 30.7354
lfoot -14.3357 15.0699
ltoes -11.0216
329
root 8.24419 15.7608 -6.04023 -174.981 50.5136 -170.066
lowerback 9.44503 0.546286 4.41191
upperback 0.00442986 1.34441 1.42309
thorax -5.23577 0.59103 -1.18314
lowerneck -11.3384 -8.70269 -13.0497
upperneck 21.6243 -11.2442 9.59389
head 10.0551 -5.15542 4.11047
rclavicle 3.3079e-014 9.54166e-015
rhumerus -33.9218 3.67567 -85.7952
rradius 36.389
rwrist 3.28351
rhand -17.6758 11.3602
rfingers 7.12502
rthumb 8.58322 -18.4453
lclavicle 3.3079e-014 9.54166e-015
lhumerus -36.238 10.219 80.279
lradius 28.3494
lwrist 1.4733
lhand -11.9398 12.6204
lfingers 7.12502
lthumb 14.1151 42.121
rfemur 4.63078 4.41789 35.7616
rtibia 19.8138
rfoot -15.8801 -18.4397
rtoes -0.392634
lfemur -26.6039 -8.8659 -12.0473
ltibia 29.2837
lfoot -14.7748 16.018
ltoes -10.7504
330
root 8.32075 15.7619 -6.11201 -174.635 50.7122 -169.767
lowerback 9.31813 0.570178 4.60252
upperback -0.017739 1.39445 1.47735
thorax -5.18241 0.612936 -1.23808
lowerneck -11.406 -8.66817 -13.1066
upperneck 21.7264 -11.1842 9.61393
head 10.1018 -5.12645 4.1353
rclavicle -2.08165e-014 -4.05521e-014
rhumerus -33.8907 3.99035 -85.9955
rradius 36.5857
rwrist 3.03519
rhand -17.794 11.8284
rfingers 7.12502
rthumb 8.46915 -17.9817
lclavicle -2.08165e-014 -4.05521e-014
lhumerus -36.3177 10.1315 80.2916
lradius 28.5071
lwrist 1.37896
lhand -11.6214 12.9856
lfingers 7.12502
lthumb 14.4218 42.4645
rfemur 5.28065 4.31047 35.8722
rtibia 19.1533
rfoot -15.8483 -18.2077
rtoes -0.333464
lfemur -26.6894 -9.46897 -11.5393
ltibia 28.0669
lfoot -15.3183 16.8192
ltoes -10.6216
